<?xml version="1.0" standalone="no"?><!DOCTYPE svg PUBLIC "-//W3C//DTD SVG 1.1//EN" "http://www.w3.org/Graphics/SVG/1.1/DTD/svg11.dtd"><svg t="1673780473726" class="icon" viewBox="0 0 1024 1024" version="1.1" xmlns="http://www.w3.org/2000/svg" p-id="3881" xmlns:xlink="http://www.w3.org/1999/xlink" width="200" height="200"><path d="M800 368a304 304 0 1 1-608 0 304 304 0 0 1 608 0z" fill="#87e8de" p-id="3882"></path><path d="M384 646.112L624.096 96C731.2 144.32 800 251.936 800 371.072 800 537.28 667.52 672 504.064 672A291.84 291.84 0 0 1 384 646.112z" fill="#5cdbd3" p-id="3883"></path><path d="M928 832c0 70.72-186.24 128-416 128S96 902.72 96 832s186.24-128 416-128 416 57.28 416 128z" fill="#36cfc9" p-id="3884"></path></svg>