<?xml version="1.0" standalone="no"?><!DOCTYPE svg PUBLIC "-//W3C//DTD SVG 1.1//EN" "http://www.w3.org/Graphics/SVG/1.1/DTD/svg11.dtd"><svg t="1714968135312" class="icon" viewBox="0 0 1024 1024" version="1.1" xmlns="http://www.w3.org/2000/svg" p-id="4494" xmlns:xlink="http://www.w3.org/1999/xlink" width="200" height="200"><path d="M512 512m-512 0a512 512 0 1 0 1024 0 512 512 0 1 0-1024 0Z" fill="#68CDBE" p-id="4495"></path><path d="M172.8 225.6c52.8-3.2 105.6-11.2 156.8-24C395.2 185.6 464 128 513.6 128c60.8 0 126.4 56 184 73.6 51.2 12.8 104 20.8 156.8 24v182.4c0 224-134.4 427.2-340.8 510.4-204.8-83.2-340.8-284.8-340.8-508.8V225.6z" fill="#FFFFFF" p-id="4496"></path><path d="M561.6 350.4c-72-52.8-174.4-36.8-227.2 35.2S297.6 560 369.6 612.8c65.6 48 153.6 40 209.6-14.4l80 59.2c11.2 8 28.8 6.4 36.8-6.4 8-11.2 6.4-28.8-6.4-36.8l-80-59.2c36.8-70.4 17.6-156.8-48-204.8z m-12.8 192c-33.6 46.4-99.2 56-144 22.4-46.4-33.6-56-97.6-22.4-144s99.2-56 144-22.4 56 97.6 22.4 144z" fill="#68CDBE" p-id="4497"></path></svg>