<svg width="42" height="42" xmlns="http://www.w3.org/2000/svg">
 <g>
  <path fill="#070707" d="m6.717392,13.773912l5.6,0c2.8,0 4.7,1.9 4.7,4.7c0,2.8 -2,4.7 -4.9,4.7l-2.5,0l0,4.3l-2.9,0l0,-13.7zm2.9,2.2l0,4.9l1.9,0c1.6,0 2.6,-0.9 2.6,-2.4c0,-1.6 -0.9,-2.4 -2.6,-2.4l-1.9,0l0,-0.1zm8.9,11.5l2.7,0l0,-5.7c0,-1.4 0.8,-2.3 2.2,-2.3c0.4,0 0.8,0.1 1,0.2l0,-2.4c-0.2,-0.1 -0.5,-0.1 -0.8,-0.1c-1.2,0 -2.1,0.7 -2.4,2l-0.1,0l0,-1.9l-2.7,0l0,10.2l0.1,0zm11.7,0.1c-3.1,0 -5,-2 -5,-5.3c0,-3.3 2,-5.3 5,-5.3s5,2 5,5.3c0,3.4 -1.9,5.3 -5,5.3zm0,-2.1c1.4,0 2.2,-1.1 2.2,-3.2c0,-2 -0.8,-3.2 -2.2,-3.2c-1.4,0 -2.2,1.2 -2.2,3.2c0,2.1 0.8,3.2 2.2,3.2z" class="st0" id="Ant-Design-Pro"/>
 </g>
</svg>