<!-- Generated by IcoMoon.io -->
<svg version="1.1" xmlns="http://www.w3.org/2000/svg" width="64" height="64" viewBox="0 0 64 64">
<title>icon-delete</title>
<path d="M32 64c-17.674 0-32-14.326-32-32s14.326-32 32-32c17.674 0 32 14.326 32 32s-14.326 32-32 32zM46.455 17.545c-0.809-0.809-2.121-0.809-2.929 0l-11.467 11.467-11.469-11.469c-0.805-0.805-2.111-0.805-2.916 0-0.804 0.805-0.804 2.111 0 2.916l11.47 11.469-11.471 11.47c-0.809 0.809-0.809 2.119 0 2.929 0.81 0.809 2.121 0.809 2.929 0l11.47-11.471 11.341 11.341c0.805 0.804 2.11 0.804 2.915 0s0.805-2.111 0-2.916l-11.34-11.34 11.467-11.467c0.809-0.809 0.809-2.121 0-2.929z"></path>
</svg>
