<!-- Generated by IcoMoon.io -->
<svg version="1.1" xmlns="http://www.w3.org/2000/svg" width="50" height="64" viewBox="0 0 50 64">
<title>icon-me</title>
<path d="M25.156 35.199c0.095 0.002 0.207 0.003 0.32 0.003 9.721 0 17.601-7.88 17.601-17.601s-7.88-17.601-17.601-17.601c-9.72 0-17.599 7.878-17.601 17.598v0c0 0.048-0.001 0.104-0.001 0.161 0 9.576 7.718 17.35 17.273 17.44h0.009zM33.019 22.444s-0.389 6.355-8.069 6.355-7.657-6.355-7.657-6.355h15.726zM25.156 38.399c-20.39 0-25.144 10.629-25.144 25.601h50.288c0-15.064-4.663-25.601-25.144-25.601v0z"></path>
</svg>
