<!-- Generated by IcoMoon.io -->
<svg version="1.1" xmlns="http://www.w3.org/2000/svg" width="64" height="64" viewBox="0 0 64 64">
<title>icon-player-vertical-right</title>
<path d="M49.857 7.143h-4.571c-0.314 0-0.571 0.257-0.571 0.571v49.143c0 0.314 0.257 0.571 0.571 0.571h4.571c0.314 0 0.571-0.257 0.571-0.571v-49.143c0-0.314-0.257-0.571-0.571-0.571zM13.571 7.143v5.171c0 0.679 0.3 1.314 0.814 1.75l21.371 17.936-21.371 17.936c-0.514 0.436-0.814 1.071-0.814 1.75v5.171c0 0.486 0.564 0.75 0.936 0.436l30.136-25.293-30.136-25.293c-0.098-0.084-0.227-0.135-0.368-0.135-0.314 0-0.568 0.254-0.568 0.568 0 0.001 0 0.002 0 0.003v-0z"></path>
</svg>
