<!-- Generated by IcoMoon.io -->
<svg version="1.1" xmlns="http://www.w3.org/2000/svg" width="64" height="64" viewBox="0 0 64 64">
<title>icon-zoom-in</title>
<path d="M61.698 55.183l-11.766-11.766c-0.822-0.817-1.92-1.355-3.141-1.466l-0.020-0.001c3.537-4.364 5.679-9.986 5.679-16.108 0-0.004 0-0.007 0-0.011v0c0-14.243-11.587-25.83-25.83-25.83s-25.83 11.587-25.83 25.83 11.587 25.83 25.83 25.83c5.375 0 10.368-1.653 14.507-4.472 0.030 1.281 0.523 2.553 1.501 3.532l11.766 11.766c1.008 1.009 2.331 1.514 3.653 1.514s2.645-0.505 3.653-1.514c0.935-0.935 1.514-2.225 1.514-3.653s-0.578-2.718-1.514-3.653v0zM26.619 43.051c-9.495 0-17.22-7.725-17.22-17.22s7.725-17.22 17.22-17.22 17.22 7.725 17.22 17.22-7.725 17.22-17.22 17.22zM38.46 25.83c0 1.902-1.542 3.444-3.444 3.444v0h-4.736v4.736c0 1.902-1.542 3.444-3.444 3.444s-3.444-1.542-3.444-3.444v0-4.736h-4.736c-1.902 0-3.444-1.542-3.444-3.444s1.542-3.444 3.444-3.444v0h4.736v-4.736c0-1.902 1.542-3.444 3.444-3.444s3.444 1.542 3.444 3.444v0 4.736h4.736c1.902 0 3.444 1.542 3.444 3.444v0z"></path>
</svg>
