<!-- Generated by IcoMoon.io -->
<svg version="1.1" xmlns="http://www.w3.org/2000/svg" width="77" height="64" viewBox="0 0 77 64">
<title>icon-eye-enable</title>
<path d="M49.869 32c0-1.188-0.169-2.303-0.509-3.369-0.897 1.989-2.86 3.369-5.189 3.369l-0.606-0.049-0.485 0.049c-2.522 0-4.582-2.084-4.582-4.631l0.024-0.484-0.024-0.607c0-2.303 1.382-4.291 3.345-5.188-1.067-0.34-2.182-0.509-3.345-0.509-6.278 0-11.369 5.115-11.369 11.418s5.091 11.394 11.369 11.394c6.278 0 11.369-5.091 11.369-11.394v0zM74.864 32c0 0-12.485-24.242-36.485-24.242-23.903 0-36.242 24.242-36.242 24.242s13.382 24.242 36.413 24.242c23.806 0 36.315-24.242 36.315-24.242zM21.627 32c0-9.358 7.54-16.945 16.873-16.945s16.873 7.588 16.873 16.945c0 9.358-7.539 16.945-16.873 16.945-9.333 0-16.873-7.587-16.873-16.945z"></path>
</svg>
