<!-- Generated by IcoMoon.io -->
<svg version="1.1" xmlns="http://www.w3.org/2000/svg" width="58" height="64" viewBox="0 0 58 64">
<title>icon-trash</title>
<path d="M14.551 8.003l4.513-7.448c0.206-0.339 0.626-0.555 1.084-0.555h17.893c0.458 0 0.878 0.216 1.084 0.555l4.513 7.448h13.333c0.673 0 1.215 0.447 1.215 1.002v5.998c0 0.555-0.542 1.002-1.215 1.002h-55.752c-0.673 0-1.215-0.447-1.215-1.002v-5.998c0-0.555 0.542-1.002 1.215-1.002h13.333zM6.067 20h46.054c0.673 0 1.215 0.447 1.215 1.002v38.997c0 2.213-2.168 4.001-4.849 4.001h-38.775c-2.682 0-4.849-1.789-4.849-4.001v-38.997c-0.009-0.555 0.533-1.002 1.205-1.002zM19.391 34.001v15.998c0 1.102 1.084 1.997 2.42 1.997s2.42-0.894 2.42-1.997v-15.998c0-1.102-1.084-1.997-2.42-1.997-1.327 0-2.42 0.894-2.42 1.997zM33.938 34.001v15.998c0 1.102 1.084 1.997 2.42 1.997s2.42-0.894 2.42-1.997v-15.998c0-1.102-1.084-1.997-2.42-1.997s-2.42 0.894-2.42 1.997z"></path>
</svg>
