<!-- Generated by IcoMoon.io -->
<svg version="1.1" xmlns="http://www.w3.org/2000/svg" width="64" height="64" viewBox="0 0 64 64">
<title>icon-unlock</title>
<path d="M13.714 21.333h3.048v-6.095c0-8.381 6.857-15.238 15.238-15.238s15.238 6.857 15.238 15.238h-5.79c0-5.182-4.267-9.448-9.448-9.448s-9.448 4.266-9.448 9.448h0v6.095h27.733c3.353 0 6.095 2.743 6.095 6.095v30.476c0 3.353-2.743 6.095-6.095 6.095h-36.571c-3.353 0-6.095-2.743-6.095-6.095v-30.476c0-3.353 2.743-6.095 6.095-6.095zM32 49.067c3.353 0 6.095-2.743 6.095-6.095s-2.743-6.095-6.095-6.095-6.095 2.743-6.095 6.095 2.743 6.095 6.095 6.095z"></path>
</svg>
