<!-- Generated by IcoMoon.io -->
<svg version="1.1" xmlns="http://www.w3.org/2000/svg" width="36" height="64" viewBox="0 0 36 64">
<title>icon-player-slider</title>
<path d="M3.631-0c-0.861 0-1.574 0.713-1.574 1.574v60.852c0 0.861 0.713 1.574 1.574 1.574h28.736c0.861 0 1.576-0.713 1.576-1.574v-60.852c0-0.861-0.715-1.574-1.576-1.574h-28.736zM3.631 1.458h28.736c0.072 0 0.116 0.044 0.116 0.116v60.852c0 0.072-0.044 0.116-0.116 0.116h-28.736c-0.072 0-0.114-0.044-0.114-0.116v-60.852c0-0.072 0.042-0.116 0.114-0.116zM10.509 21.974v1.46h14.982v-1.46h-14.982zM10.509 40.566v1.46h14.982v-1.46h-14.982z"></path>
</svg>
