<!-- Generated by IcoMoon.io -->
<svg version="1.1" xmlns="http://www.w3.org/2000/svg" width="64" height="64" viewBox="0 0 64 64">
<title>icon-zoom-out</title>
<path d="M61.698 55.183l-11.766-11.766c-0.884-0.884-2.010-1.357-3.161-1.468 3.546-4.422 5.679-10.023 5.679-16.118 0-14.243-11.587-25.83-25.83-25.83s-25.83 11.587-25.83 25.83 11.587 25.83 25.83 25.83c5.375 0 10.368-1.653 14.507-4.472 0.030 1.281 0.523 2.553 1.501 3.532l11.766 11.766c1.008 1.009 2.331 1.514 3.653 1.514s2.645-0.505 3.653-1.514c2.018-2.017 2.018-5.287 0-7.305zM26.619 43.050c-9.495 0-17.22-7.725-17.22-17.22s7.725-17.22 17.22-17.22 17.22 7.725 17.22 17.22-7.725 17.22-17.22 17.22zM38.46 25.83c0 1.901-1.543 3.444-3.444 3.444h-16.359c-1.901 0-3.444-1.543-3.444-3.444s1.543-3.444 3.444-3.444h16.359c1.901 0 3.444 1.542 3.444 3.444z"></path>
</svg>
