<!-- Generated by IcoMoon.io -->
<svg version="1.1" xmlns="http://www.w3.org/2000/svg" width="42" height="64" viewBox="0 0 42 64">
<title>icon-player-ruler</title>
<path d="M6.411-0c-1.569 0-2.867 1.298-2.867 2.867v46.957c0 0.928 0.451 1.8 1.207 2.337l16.649 11.839 15.901-11.831c0.727-0.541 1.156-1.396 1.156-2.301v-47.001c0-1.569-1.298-2.867-2.867-2.867zM6.411 2.493h29.178c0.222 0 0.374 0.152 0.374 0.374v47.001c0 0.12-0.054 0.227-0.15 0.299l-14.447 10.75-15.171-10.788c-0.1-0.071-0.158-0.183-0.158-0.305v-46.957c0-0.222 0.152-0.374 0.374-0.374z"></path>
</svg>
