<!-- Generated by IcoMoon.io -->
<svg version="1.1" xmlns="http://www.w3.org/2000/svg" width="64" height="64" viewBox="0 0 64 64">
<title>icon-moon</title>
<path d="M16.221 32c0-4.088 3.314-7.403 7.403-7.403s7.403 3.314 7.403 7.403c0 4.088-3.314 7.403-7.403 7.403s-7.403-3.314-7.403-7.403zM32 0c-17.673 0-32 14.327-32 32s14.327 32 32 32c17.673 0 32-14.327 32-32s-14.327-32-32-32zM23.712 59.955c-9.622-5.598-16.092-16.020-16.092-27.955s6.47-22.357 16.091-27.955c9.626 5.598 16.099 16.018 16.099 27.955s-6.474 22.357-16.099 27.955z"></path>
</svg>
