<!-- Generated by IcoMoon.io -->
<svg version="1.1" xmlns="http://www.w3.org/2000/svg" width="64" height="64" viewBox="0 0 64 64">
<title>icon-player-vertical-left</title>
<path d="M18.714 7.143h-4.571c-0.314 0-0.571 0.257-0.571 0.571v49.143c0 0.314 0.257 0.571 0.571 0.571h4.571c0.314 0 0.571-0.257 0.571-0.571v-49.143c0-0.314-0.257-0.571-0.571-0.571zM50.429 12.314v-5.171c0-0.486-0.564-0.75-0.936-0.436l-30.136 25.293 30.136 25.293c0.371 0.314 0.936 0.050 0.936-0.436v-5.171c0-0.671-0.3-1.314-0.814-1.75l-21.371-17.936 21.371-17.936c0.514-0.436 0.814-1.079 0.814-1.75z"></path>
</svg>
