<!-- Generated by IcoMoon.io -->
<svg version="1.1" xmlns="http://www.w3.org/2000/svg" width="64" height="64" viewBox="0 0 64 64">
<title>icon-tools</title>
<path d="M62.081 52.040l-14.875-14.904c0 0-1.812-1.514-0.586-3.434 1.253-2.976 1.898-6.174 1.895-9.403 0-13.42-10.863-24.299-24.257-24.299-2.251 0.002-4.49 0.322-6.651 0.95-1.809 0.625-0.524 1.945-0.524 1.945l11.175 11.193c3.59 3.598 3.59 9.423 0 13.021l-1.083 1.083c-1.722 1.726-4.060 2.696-6.498 2.696s-4.776-0.97-6.498-2.696l-11.35-11.372c0 0-1.164-0.975-1.785 0.492-0.69 2.266-1.042 4.622-1.044 6.991 0 13.42 10.86 24.302 24.257 24.302 3.511 0.003 6.981-0.76 10.166-2.237 1.396-0.724 2.437 0.468 2.437 0.468l15.2 15.244c1.463 1.469 3.537 2.155 5.588 1.849 0 0 5.12-0.46 6.262-6.178 0.349-2.087-0.333-4.214-1.829-5.711v0.002z"></path>
</svg>
