<!-- Generated by IcoMoon.io -->
<svg version="1.1" xmlns="http://www.w3.org/2000/svg" width="64" height="64" viewBox="0 0 64 64">
<title>icon-layout</title>
<path d="M32.008 62.774c-15.711 0-28.445-12.732-28.445-28.445 0-11.892 7.301-22.075 17.656-26.323v0.007c0.306-0.109 0.636-0.168 0.982-0.168 1.621 0 2.944 1.316 2.944 2.941 0 1.279-0.819 2.373-1.965 2.776v0.002c-8.069 3.433-13.731 11.438-13.731 20.763 0 12.461 10.099 22.56 22.56 22.56s22.561-10.101 22.561-22.56c0-9.325-5.658-17.329-13.734-20.763-1.144-0.401-1.961-1.495-1.961-2.776 0-1.625 1.316-2.942 2.942-2.942 0.342 0 0.67 0.059 0.98 0.168v-0.007c10.364 4.249 17.656 14.432 17.656 26.323 0.002 15.711-12.734 28.443-28.444 28.443zM32.008 32.368c-1.623 0-2.941-1.317-2.941-2.944v-26.482c-0.002-1.621 1.319-2.942 2.941-2.942 1.625 0 2.942 1.319 2.942 2.942v26.481c0.001 1.627-1.316 2.946-2.942 2.946z"></path>
</svg>
