<!-- Generated by IcoMoon.io -->
<svg version="1.1" xmlns="http://www.w3.org/2000/svg" width="77" height="64" viewBox="0 0 77 64">
<title>icon-eye-disable</title>
<path d="M56.586 0.746c-2.658-1.534-6.057-0.624-7.591 2.034l-3.317 5.728c-2.301-0.495-4.735-0.772-7.301-0.772-23.926 0-36.276 24.265-36.276 24.265s6.719 12.164 18.823 19.266l-2.547 4.398c-1.534 2.658-0.624 6.057 2.034 7.591s6.057 0.624 7.591-2.034l30.615-52.885c1.534-2.658 0.623-6.057-2.034-7.591zM21.612 32.001c0-9.367 7.546-16.961 16.888-16.961 1.102 0 2.178 0.106 3.22 0.307l-3.027 5.229c-0.065-0.001-0.129-0.003-0.193-0.003-6.284 0-11.38 5.12-11.38 11.429 0 2.128 0.581 4.116 1.591 5.819l-3.026 5.226c-2.539-2.968-4.073-6.825-4.073-11.045zM59.601 14.769l-5.816 10.013c1.027 2.191 1.603 4.637 1.603 7.219 0 8.938-6.872 16.256-15.618 16.909l-4.193 7.218c0.972 0.089 1.962 0.138 2.971 0.138 23.829 0 36.35-24.264 36.35-24.264s-5.186-10.066-15.296-17.232z"></path>
</svg>
