<!-- Generated by IcoMoon.io -->
<svg version="1.1" xmlns="http://www.w3.org/2000/svg" width="70" height="64" viewBox="0 0 70 64">
<title>icon-player-volume</title>
<path d="M38.081 5.231v53.527c0 0.849-0.313 1.593-0.938 2.214s-1.376 0.931-2.231 0.931c-0.855 0-1.606-0.31-2.231-0.931l-16.517-16.38h-12.993c-0.855 0-1.606-0.31-2.232-0.931s-0.939-1.355-0.939-2.214v-18.894c0-0.849 0.313-1.593 0.939-2.214s1.366-0.931 2.232-0.931h12.993l16.507-16.38c0.626-0.621 1.366-0.931 2.231-0.931 0.855 0 1.606 0.31 2.231 0.931 0.636 0.611 0.949 1.345 0.949 2.204zM55.005 25.005c1.408 2.163 2.106 4.491 2.106 6.985s-0.699 4.812-2.106 6.964c-1.408 2.152-3.264 3.684-5.579 4.605-0.334 0.166-0.74 0.248-1.241 0.248-0.855 0-1.606-0.3-2.231-0.911s-0.938-1.355-0.938-2.235c0-0.693 0.198-1.273 0.594-1.749s0.876-0.89 1.439-1.231c0.563-0.341 1.126-0.724 1.689-1.128 0.563-0.414 1.043-1.004 1.439-1.769s0.594-1.697 0.594-2.783c0-1.087-0.198-2.007-0.594-2.783-0.396-0.766-0.876-1.355-1.439-1.769s-1.126-0.786-1.689-1.128c-0.563-0.341-1.043-0.755-1.439-1.231s-0.594-1.055-0.594-1.749c0-0.89 0.313-1.635 0.938-2.235 0.626-0.61 1.366-0.911 2.231-0.911 0.501 0 0.907 0.083 1.241 0.248 2.315 0.88 4.181 2.401 5.579 4.563zM65.6 18.093c2.805 4.253 4.213 8.878 4.213 13.897s-1.408 9.654-4.213 13.897c-2.805 4.253-6.528 7.336-11.158 9.271-0.428 0.166-0.845 0.248-1.241 0.248-0.897 0-1.658-0.31-2.284-0.931s-0.938-1.366-0.938-2.214c0-1.283 0.647-2.245 1.929-2.908 1.846-0.952 3.107-1.676 3.764-2.163 2.45-1.769 4.359-3.994 5.725-6.664 1.376-2.67 2.054-5.515 2.054-8.537s-0.688-5.867-2.054-8.537c-1.376-2.67-3.285-4.894-5.725-6.664-0.657-0.497-1.919-1.211-3.764-2.163-1.293-0.652-1.929-1.625-1.929-2.908 0-0.848 0.313-1.594 0.938-2.214s1.366-0.931 2.231-0.931c0.428 0 0.855 0.083 1.293 0.248 4.619 1.935 8.342 5.029 11.158 9.271z"></path>
</svg>
