<!-- Generated by IcoMoon.io -->
<svg version="1.1" xmlns="http://www.w3.org/2000/svg" width="54" height="64" viewBox="0 0 54 64">
<title>icon-password</title>
<path d="M49.354 27.514h-4.395v-12.955c0-7.708-8.038-13.954-17.959-13.954s-17.959 6.247-17.959 13.954v12.955h-4.521c-2.274-0.066-4.205 1.657-4.395 3.924l-0.125 28.032c0 1.926 2.135 3.923 4.647 3.923h44.833c2.273 0.065 4.203-1.657 4.395-3.923l0.125-28.032c0-1.93-2.135-3.924-4.647-3.924v0 0zM35.917 27.514h-17.959v-13.455c0-3.845 4.145-6.479 9.042-6.479 5.024 0 9.042 2.637 9.042 6.479l-0.125 13.455z"></path>
</svg>
