<!-- Generated by IcoMoon.io -->
<svg version="1.1" xmlns="http://www.w3.org/2000/svg" width="53" height="64" viewBox="0 0 53 64">
<title>icon-permission</title>
<path d="M49.73 12.724c-9.623 0-17.002-2.725-23.23-8.75-6.228 6.026-13.609 8.75-23.23 8.75 0 15.695-3.269 38.178 23.23 47.302 26.501-9.124 23.23-31.608 23.23-47.302v0zM41.509 24.309l-15.415 18.466c-0.219 0.42-0.512 0.773-0.865 1.054l-0.007 0.005c-0.518 0.389-1.173 0.622-1.881 0.622-0.993 0-1.88-0.459-2.458-1.176l-0.004-0.006-9.373-11.833c-0.397-0.497-0.637-1.136-0.637-1.83 0-0.934 0.435-1.767 1.113-2.308l0.006-0.004c0.031-0.032 0.062-0.046 0.078-0.062 0.52-0.389 1.176-0.623 1.886-0.623 0.989 0 1.872 0.453 2.452 1.162l0.004 0.005 6.975 8.813 13.375-16.021c0.558-0.629 1.368-1.023 2.271-1.023 0.737 0 1.413 0.263 1.938 0.701l-0.005-0.004c0.708 0.524 1.162 1.356 1.162 2.295 0 0.672-0.232 1.288-0.621 1.775l0.004-0.005z"></path>
</svg>
