<!-- Generated by IcoMoon.io -->
<svg version="1.1" xmlns="http://www.w3.org/2000/svg" width="64" height="64" viewBox="0 0 64 64">
<title>icon-close</title>
<path d="M24.132 32l-22.503 22.503c-2.172 2.173-2.172 5.695 0 7.868 1.086 1.086 2.51 1.629 3.934 1.629v0c1.424 0 2.848-0.543 3.934-1.629l22.503-22.503 22.502 22.502c1.086 1.086 2.51 1.629 3.934 1.629v0c1.424 0 2.848-0.543 3.934-1.63 2.173-2.173 2.173-5.695 0-7.868l-22.502-22.502 22.502-22.502c2.173-2.173 2.173-5.696 0-7.868s-5.696-2.173-7.868 0l-22.502 22.502-22.503-22.503c-2.173-2.173-5.696-2.172-7.868 0s-2.172 5.696 0 7.868l22.503 22.503z"></path>
</svg>
