<!-- Generated by IcoMoon.io -->
<svg version="1.1" xmlns="http://www.w3.org/2000/svg" width="72" height="64" viewBox="0 0 72 64">
<title>icon-unlock-alt</title>
<path d="M19.063 0c10.5 0.037 18.938 8.688 18.938 19.188v8.813h28c3.313 0 6 2.688 6 6v24c0 3.313-2.688 6-6 6h-44c-3.313 0-6-2.688-6-6v-24c0-3.313 2.688-6 6-6h6v-8.887c0-4.95-3.962-9.063-8.913-9.113-5-0.050-9.088 4.012-9.088 9v10c0 1.663-1.338 3-3 3h-4c-1.663 0-3-1.337-3-3v-10c0-10.5 8.563-19.038 19.063-19zM39 49c0 2.763 2.237 5 5 5s5-2.237 5-5v-6c0-2.763-2.237-5-5-5s-5 2.237-5 5z"></path>
</svg>
