<!-- Generated by IcoMoon.io -->
<svg version="1.1" xmlns="http://www.w3.org/2000/svg" width="42" height="64" viewBox="0 0 42 64">
<title>icon-player-ruler-fill</title>
<path d="M6.537-0.002c-1.767 0-3.199 1.434-3.199 3.201v46.35c0 1.036 0.5 2.007 1.344 2.607l16.654 11.842 15.91-11.84c0.812-0.604 1.291-1.555 1.291-2.566v-46.393c0-1.767-1.432-3.199-3.199-3.199l-28.801-0.002zM6.537 0.371h28.801c1.549 0 2.83 1.282 2.83 2.83v46.393c0 0.894-0.423 1.738-1.141 2.272l-15.695 11.678-16.434-11.686c-0.746-0.53-1.191-1.391-1.191-2.307v-46.35c0-1.549 1.282-2.83 2.83-2.83zM6.537 2.832c-0.219 0-0.369 0.15-0.369 0.369v46.35c0 0.12 0.058 0.231 0.156 0.301l14.975 10.648 14.26-10.611c0.095-0.070 0.148-0.176 0.148-0.295v-46.393c0-0.219-0.15-0.369-0.369-0.369h-28.801z"></path>
</svg>
