<?xml version="1.0" encoding="UTF-8"?>
<svg width="86px" height="78px" viewBox="0 0 86 78" version="1.1" xmlns="http://www.w3.org/2000/svg" xmlns:xlink="http://www.w3.org/1999/xlink">
    <!-- Generator: Sketch 49.1 (51147) - http://www.bohemiancoding.com/sketch -->
    <title>Group 3</title>
    <desc>Created with Sketch.</desc>
    <defs>
        <path d="M42.6703722,1.66995728 L77.6353026,33.0218945 C79.2800648,34.4967003 79.4178417,37.0256099 77.9430359,38.6703722 C77.8461185,38.7784583 77.7433887,38.8811881 77.6353026,38.9781055 L42.6703722,70.3300427 C41.1508289,71.6925687 38.8491711,71.6925687 37.3296278,70.3300427 L2.36469744,38.9781055 C0.719935183,37.5032997 0.582158272,34.9743901 2.0569641,33.3296278 C2.1538815,33.2215417 2.25661129,33.1188119 2.36469744,33.0218945 L37.3296278,1.66995728 C38.8491711,0.307431303 41.1508289,0.307431303 42.6703722,1.66995728 Z" id="path-1"></path>
        <filter x="-8.8%" y="-6.9%" width="117.5%" height="119.4%" filterUnits="objectBoundingBox" id="filter-2">
            <feOffset dx="0" dy="2" in="SourceAlpha" result="shadowOffsetOuter1"></feOffset>
            <feGaussianBlur stdDeviation="2" in="shadowOffsetOuter1" result="shadowBlurOuter1"></feGaussianBlur>
            <feComposite in="shadowBlurOuter1" in2="SourceAlpha" operator="out" result="shadowBlurOuter1"></feComposite>
            <feColorMatrix values="0 0 0 0 0   0 0 0 0 0   0 0 0 0 0  0 0 0 0.04 0" type="matrix" in="shadowBlurOuter1"></feColorMatrix>
        </filter>
    </defs>
    <g id="Page-1" stroke="none" stroke-width="1" fill="none" fill-rule="evenodd">
        <g id="Flow-01" transform="translate(-7.000000, -184.000000)">
            <g id="Group-3" transform="translate(10.000000, 185.000000)">
                <g id="Polygon">
                    <use fill="black" fill-opacity="1" filter="url(#filter-2)" xlink:href="#path-1"></use>
                    <use fill-opacity="0.92" fill="#E6FFFB" fill-rule="evenodd" xlink:href="#path-1"></use>
                    <path stroke="#5CDBD3" stroke-width="1" d="M42.3365757,2.04222047 C41.0069753,0.850010239 38.9930247,0.850010239 37.6634243,2.04222047 L2.69849396,33.3941577 C2.60391858,33.4789604 2.51403002,33.568849 2.42922729,33.6634243 C1.13877219,35.1025913 1.25932699,37.3153872 2.69849396,38.6058423 L37.6634243,69.9577795 C38.9930247,71.1499898 41.0069753,71.1499898 42.3365757,69.9577795 L77.301506,38.6058423 C77.3960814,38.5210396 77.48597,38.431151 77.5707727,38.3365757 C78.8612278,36.8974087 78.740673,34.6846128 77.301506,33.3941577 L42.3365757,2.04222047 Z"></path>
                </g>
                <text id="decision" font-family="PingFangSC-Regular, PingFang SC" font-size="12" font-weight="normal" line-spacing="12" fill="#000000" fill-opacity="0.65">
                    <tspan x="18" y="42">Decision</tspan>
                </text>
            </g>
        </g>
    </g>
</svg>