<?xml version="1.0" encoding="UTF-8"?>
<svg width="48px" height="48px" viewBox="0 0 48 48" version="1.1" xmlns="http://www.w3.org/2000/svg" xmlns:xlink="http://www.w3.org/1999/xlink">
    <!-- Generator: Sketch 52.2 (67145) - http://www.bohemiancoding.com/sketch -->
    <title>Group 17</title>
    <desc>Created with Sketch.</desc>
    <defs>
        <circle id="path-1" cx="20" cy="20" r="20"></circle>
        <filter x="-17.5%" y="-12.5%" width="135.0%" height="135.0%" filterUnits="objectBoundingBox" id="filter-2">
            <feOffset dx="0" dy="2" in="SourceAlpha" result="shadowOffsetOuter1"></feOffset>
            <feGaussianBlur stdDeviation="2" in="shadowOffsetOuter1" result="shadowBlurOuter1"></feGaussianBlur>
            <feComposite in="shadowBlurOuter1" in2="SourceAlpha" operator="out" result="shadowBlurOuter1"></feComposite>
            <feColorMatrix values="0 0 0 0 0   0 0 0 0 0   0 0 0 0 0  0 0 0 0.04 0" type="matrix" in="shadowBlurOuter1"></feColorMatrix>
        </filter>
    </defs>
    <g id="Page-1" stroke="none" stroke-width="1" fill="none" fill-rule="evenodd">
        <g id="拓扑图编译器" transform="translate(-119.000000, -139.000000)">
            <g id="Group-17" transform="translate(123.000000, 141.000000)">
                <g id="Oval-Copy-9">
                    <use fill="black" fill-opacity="1" filter="url(#filter-2)" xlink:href="#path-1"></use>
                    <circle stroke="#5CDBD3" stroke-width="1" stroke-linejoin="square" fill-opacity="0.92" fill="#5CDBD3" fill-rule="evenodd" cx="20" cy="20" r="19.5"></circle>
                </g>
                <g id="earth-copy-7" transform="translate(12.000000, 12.000000)" fill="#FFFFFF" fill-rule="nonzero">
                    <rect id="Rectangle-path" opacity="0" x="0" y="0" width="16" height="16"></rect>
                    <path d="M13.35,12.5140625 C13.353125,12.509375 13.3578125,12.5046875 13.3609375,12.5 C14.384375,11.2828125 15,9.7140625 15,8 C15,6.2859375 14.384375,4.7171875 13.3625,3.5 C13.359375,3.4953125 13.3546875,3.4921875 13.3515625,3.4875 C13.334375,3.4671875 13.31875,3.4484375 13.3015625,3.4296875 C13.2953125,3.421875 13.2890625,3.415625 13.2828125,3.4078125 C13.2609375,3.3828125 13.240625,3.359375 13.21875,3.334375 L13.2171875,3.3328125 C13.19375,3.30625 13.16875,3.2796875 13.1453125,3.253125 L13.14375,3.2515625 C13.09375,3.1984375 13.04375,3.1453125 12.9921875,3.09375 L12.990625,3.0921875 L12.915625,3.0171875 L12.9109375,3.0125 C12.8875,2.9890625 12.8640625,2.9671875 12.840625,2.9453125 C12.8328125,2.9375 12.825,2.9296875 12.815625,2.921875 C12.8,2.90625 12.784375,2.8921875 12.76875,2.878125 C12.7640625,2.8734375 12.7578125,2.86875 12.753125,2.8625 C11.50625,1.70625 9.8359375,1 8,1 C6.1640625,1 4.49375,1.70625 3.2453125,2.8625 C3.240625,2.8671875 3.234375,2.871875 3.2296875,2.878125 C3.2140625,2.8921875 3.1984375,2.9078125 3.1828125,2.9234375 C3.175,2.93125 3.1671875,2.9390625 3.1578125,2.946875 C3.134375,2.96875 3.1109375,2.9921875 3.0875,3.0140625 L3.0828125,3.01875 L3.0078125,3.09375 L3.00625,3.0953125 C2.9546875,3.146875 2.9046875,3.2 2.8546875,3.253125 L2.853125,3.2546875 C2.828125,3.28125 2.8046875,3.3078125 2.78125,3.334375 L2.7796875,3.3359375 C2.7578125,3.359375 2.7359375,3.384375 2.715625,3.409375 C2.709375,3.4171875 2.703125,3.4234375 2.696875,3.43125 C2.6796875,3.45 2.6640625,3.4703125 2.646875,3.4890625 C2.64375,3.49375 2.6390625,3.496875 2.6359375,3.5015625 C1.615625,4.7171875 1,6.2859375 1,8 C1,9.7140625 1.615625,11.2828125 2.6375,12.5 C2.640625,12.5046875 2.6453125,12.509375 2.6484375,12.5140625 C2.6640625,12.5328125 2.68125,12.553125 2.696875,12.571875 C2.703125,12.5796875 2.709375,12.5859375 2.715625,12.59375 C2.7375,12.61875 2.7578125,12.6421875 2.7796875,12.6671875 C2.7796875,12.66875 2.78125,12.66875 2.78125,12.6703125 C2.8046875,12.696875 2.828125,12.7234375 2.853125,12.7484375 L2.8546875,12.75 C2.9046875,12.803125 2.9546875,12.85625 3.0046875,12.9078125 L3.00625,12.909375 C3.03125,12.934375 3.0546875,12.959375 3.0796875,12.9828125 L3.084375,12.9875 C3.1359375,13.0390625 3.1890625,13.0890625 3.2421875,13.1375 C4.49375,14.29375 6.1640625,15 8,15 C9.8359375,15 11.50625,14.29375 12.7546875,13.1375 C12.8078125,13.0890625 12.859375,13.0390625 12.9109375,12.9875 L12.915625,12.9828125 C12.940625,12.9578125 12.965625,12.934375 12.9890625,12.909375 L12.990625,12.9078125 C13.0421875,12.85625 13.0921875,12.803125 13.140625,12.75 L13.1421875,12.7484375 C13.165625,12.721875 13.190625,12.696875 13.2140625,12.6703125 C13.2140625,12.66875 13.215625,12.66875 13.215625,12.6671875 C13.2375,12.64375 13.259375,12.61875 13.2796875,12.59375 C13.2859375,12.5859375 13.2921875,12.5796875 13.2984375,12.571875 C13.3171875,12.5515625 13.334375,12.5328125 13.35,12.5140625 Z M13.4140625,10.2859375 C13.1984375,10.7953125 12.9140625,11.2671875 12.5671875,11.6953125 C12.178125,11.359375 11.7515625,11.065625 11.29375,10.821875 C11.475,10.0890625 11.5875,9.284375 11.6171875,8.4375 L13.859375,8.4375 C13.8125,9.0765625 13.6625,9.696875 13.4140625,10.2859375 Z M13.859375,7.5625 L11.6171875,7.5625 C11.5875,6.715625 11.475,5.9109375 11.29375,5.178125 C11.7515625,4.934375 12.178125,4.640625 12.5671875,4.3046875 C12.9140625,4.7328125 13.1984375,5.2046875 13.4140625,5.7140625 C13.6625,6.303125 13.8125,6.9234375 13.859375,7.5625 Z M10.2859375,2.5859375 C10.90625,2.8484375 11.4703125,3.2109375 11.9671875,3.6671875 C11.678125,3.9140625 11.3671875,4.13125 11.0390625,4.3203125 C10.79375,3.6171875 10.4796875,3.00625 10.1140625,2.5171875 C10.171875,2.5390625 10.2296875,2.5625 10.2859375,2.5859375 Z M8.8703125,13.5328125 C8.7265625,13.6453125 8.5828125,13.73125 8.4375,13.7890625 L8.4375,10.890625 C9.0609375,10.934375 9.665625,11.071875 10.2453125,11.3 C10.115625,11.684375 9.965625,12.0390625 9.7921875,12.359375 C9.5203125,12.865625 9.2015625,13.2703125 8.8703125,13.5328125 Z M9.7921875,3.640625 C9.9640625,3.9625 10.115625,4.3171875 10.2453125,4.7 C9.665625,4.928125 9.0609375,5.065625 8.4375,5.109375 L8.4375,2.2125 C8.58125,2.2703125 8.7265625,2.3546875 8.8703125,2.46875 C9.2015625,2.7296875 9.5203125,3.134375 9.7921875,3.640625 Z M8.4375,10.0140625 L8.4375,8.4375 L10.7421875,8.4375 C10.7171875,9.128125 10.63125,9.7984375 10.4875,10.434375 L10.4828125,10.453125 C9.840625,10.209375 9.153125,10.0578125 8.4375,10.0140625 Z M8.4375,7.5625 L8.4375,5.9859375 C9.153125,5.9421875 9.840625,5.790625 10.4828125,5.546875 L10.4875,5.565625 C10.63125,6.2015625 10.7171875,6.8703125 10.7421875,7.5625 L8.4375,7.5625 Z M7.5625,8.4375 L7.5625,10.0140625 C6.846875,10.0578125 6.159375,10.209375 5.5171875,10.453125 L5.5125,10.434375 C5.36875,9.7984375 5.2828125,9.1296875 5.2578125,8.4375 L7.5625,8.4375 Z M5.2578125,7.5625 C5.2828125,6.871875 5.36875,6.2015625 5.5125,5.565625 L5.5171875,5.546875 C6.159375,5.790625 6.8453125,5.9421875 7.5625,5.9859375 L7.5625,7.5625 L5.2578125,7.5625 Z M7.5625,10.890625 L7.5625,13.7875 C7.41875,13.7296875 7.2734375,13.6453125 7.1296875,13.53125 C6.7984375,13.2703125 6.478125,12.8640625 6.20625,12.3578125 C6.034375,12.0359375 5.8828125,11.68125 5.753125,11.2984375 C6.334375,11.0703125 6.9390625,10.934375 7.5625,10.890625 Z M7.5625,5.109375 C6.9390625,5.065625 6.334375,4.928125 5.7546875,4.7 C5.884375,4.315625 6.034375,3.9609375 6.2078125,3.640625 C6.4796875,3.134375 6.7984375,2.728125 7.13125,2.4671875 C7.275,2.3546875 7.41875,2.26875 7.5640625,2.2109375 L7.5640625,5.109375 L7.5625,5.109375 Z M5.7140625,2.5859375 C5.771875,2.5625 5.828125,2.5390625 5.8859375,2.5171875 C5.5203125,3.00625 5.20625,3.6171875 4.9609375,4.3203125 C4.6328125,4.1328125 4.321875,3.9140625 4.0328125,3.6671875 C4.5296875,3.2109375 5.09375,2.8484375 5.7140625,2.5859375 Z M2.5859375,5.7140625 C2.8015625,5.2046875 3.0859375,4.7328125 3.4328125,4.3046875 C3.821875,4.640625 4.2484375,4.934375 4.70625,5.178125 C4.525,5.9109375 4.4125,6.715625 4.3828125,7.5625 L2.140625,7.5625 C2.1875,6.9234375 2.3375,6.303125 2.5859375,5.7140625 Z M2.140625,8.4375 L4.3828125,8.4375 C4.4125,9.284375 4.525,10.0890625 4.70625,10.821875 C4.2484375,11.065625 3.821875,11.359375 3.4328125,11.6953125 C3.0859375,11.2671875 2.8015625,10.7953125 2.5859375,10.2859375 C2.3375,9.696875 2.1875,9.0765625 2.140625,8.4375 Z M5.7140625,13.4140625 C5.09375,13.1515625 4.5296875,12.7890625 4.0328125,12.3328125 C4.321875,12.0859375 4.6328125,11.86875 4.9609375,11.6796875 C5.20625,12.3828125 5.5203125,12.99375 5.8859375,13.4828125 C5.828125,13.4609375 5.7703125,13.4375 5.7140625,13.4140625 Z M10.2859375,13.4140625 C10.228125,13.4375 10.171875,13.4609375 10.1140625,13.4828125 C10.4796875,12.99375 10.79375,12.3828125 11.0390625,11.6796875 C11.3671875,11.8671875 11.678125,12.0859375 11.9671875,12.3328125 C11.4703125,12.7890625 10.90625,13.1515625 10.2859375,13.4140625 Z" id="Shape"></path>
                </g>
            </g>
        </g>
    </g>
</svg>