<?xml version="1.0" encoding="utf-8"?>
<!-- Generator: Adobe Illustrator 18.0.0, SVG Export Plug-In . SVG Version: 6.00 Build 0)  -->
<!DOCTYPE svg PUBLIC "-//W3C//DTD SVG 1.1//EN" "http://www.w3.org/Graphics/SVG/1.1/DTD/svg11.dtd">
<svg version="1.1" id="图层_1" xmlns="http://www.w3.org/2000/svg" xmlns:xlink="http://www.w3.org/1999/xlink" x="0px" y="0px"
	 viewBox="0 0 530 450" enable-background="new 0 0 530 450" xml:space="preserve">
<g id="图层_1_1_">
	<g>
		<linearGradient id="SVGID_1_" gradientUnits="userSpaceOnUse" x1="2.1488" y1="222.55" x2="527.0878" y2="222.55">
			<stop  offset="0" style="stop-color:#D8E7F7"/>
			<stop  offset="6.119030e-002" style="stop-color:#CFE3F5"/>
			<stop  offset="0.163" style="stop-color:#B5D8F1"/>
			<stop  offset="0.2928" style="stop-color:#8CC7EA"/>
			<stop  offset="0.444" style="stop-color:#53B0E0"/>
			<stop  offset="0.5674" style="stop-color:#1F9AD7"/>
			<stop  offset="0.8652" style="stop-color:#006CBA"/>
			<stop  offset="0.9944" style="stop-color:#00599B"/>
		</linearGradient>
		<path fill="none" stroke="url(#SVGID_1_)" stroke-width="6" stroke-miterlimit="10" d="M154.4,435.3L6.3,191.3
			c-1.6-2.6-1.5-5.9,0.1-8.5L118.6,9.5c1.5-2.3,4-3.6,6.7-3.6h278.9c2.7,0,5.2,1.4,6.7,3.7l111.9,173.2c1.7,2.6,1.7,5.9,0.1,8.5
			L374.6,435c-1.4,2.4-4,3.8-6.8,3.8l-206.5,0.4C158.5,439.2,155.9,437.7,154.4,435.3z"/>
	</g>
	
		<linearGradient id="SVGID_2_" gradientUnits="userSpaceOnUse" x1="66.4481" y1="221.5011" x2="464.1519" y2="221.5011" gradientTransform="matrix(1 0 0 1 0 2)">
		<stop  offset="0" style="stop-color:#D8E7F7"/>
		<stop  offset="6.119030e-002" style="stop-color:#CFE3F5"/>
		<stop  offset="0.163" style="stop-color:#B5D8F1"/>
		<stop  offset="0.2928" style="stop-color:#8CC7EA"/>
		<stop  offset="0.444" style="stop-color:#53B0E0"/>
		<stop  offset="0.5674" style="stop-color:#1F9AD7"/>
		<stop  offset="0.8652" style="stop-color:#006CBA"/>
		<stop  offset="0.9944" style="stop-color:#00599B"/>
	</linearGradient>
	<path fill="#FFDF00" stroke="url(#SVGID_2_)" stroke-width="3" stroke-miterlimit="10" d="M176.7,376L70.8,207.4
		c-3.9-6.2-3.8-14.2,0.3-20.3l78-116.5c3.5-5.2,9.3-8.3,15.5-8.3h201.6c6.2,0,12,3.1,15.5,8.3l77.8,116.5c4.1,6.1,4.2,14.1,0.3,20.3
		L353.6,375.8c-3.4,5.4-9.3,8.7-15.7,8.7l-145.3,0.2C186.1,384.8,180.2,381.5,176.7,376z"/>
	<g>
		<path fill="#3B3B3B" d="M317.5,266.2c1.1,2.7,2.2,5.8,2.7,6.9c2.7,7.3,3.8,9.2,4.9,13.1c2.2,5,3.8,9.6,4.3,10.4
			c0,0.4-0.5,1.2-5.4,3.1c-9.2,4.2-18.4,8.1-22.1,9.6c-1.6,0.8-9.7,4.2-17.3,7.7c-8.1,3.5-15.1,6.5-15.7,6.9
			c-0.5,0.4-3.2,1.5-5.4,2.3c-7,3.1-7,2.7-2.7,10.4c1.6,3.1,2.7,5.8,2.7,6.1s-3.8,2.3-12.4,6.5c-5.9,3.1-7.6,3.8-7.6,5
			c0,0.8,0.5,1.2,5.4,5.4c4.9,4.2,10.8,9.2,11.3,9.6c0,0-13.5,4.6-16.2,5.4c-0.5,0-2.2-0.8-4.9-3.1l-1.1-0.8l4.3-1.5
			c7-2.7,7-2.3-4.9-11.5l-9.2-6.9l2.2-1.2c1.1-0.8,5.4-3.5,9.7-6.1c4.3-2.7,8.1-5,8.1-5.8c0.5-1.2,0.5-1.5-4.9-9.6
			c-2.2-3.8-5.4-8.4-6.5-10.4l-2.2-3.5l40-28.4l40-28.4l1.1,1.9C315.4,260.8,317,263.9,317.5,266.2"/>
		<path id="path4" fill="#EBC52B" d="M268.3,285.1L231,313.2l6.1,9.9c7.1,11.8,7.1,12.5,6.6,13.3c0,0.4-4.5,3.4-9.6,6.8l-9.1,6.1
			l1.5,1.5c1,0.8,5,4.2,9.1,7.2c9.1,7.2,9.1,7.6,2.5,9.9l-3.5,1.1l1,1.1c0.5,0.8,2,1.5,2.5,1.9l1,0.8l7.6-2.7
			c4.5-1.5,7.6-2.7,7.6-2.7s-2.5-2.3-5.5-4.9c-12.6-11.4-12.6-9.5-0.5-16c4.5-2.3,8.6-4.6,8.6-4.9c0-0.4-0.5-2.3-2-5.7
			c-4-8.7-4.5-7.6,7.6-13.3c4.5-2.3,11.6-5.7,16.1-7.6s15.1-6.8,23.2-11c8.6-3.8,15.6-7.6,16.1-7.6l1-0.8l-2-4.9
			c-1-2.7-2.5-6.8-3.5-9.1c-1-2.3-2-5.3-2.5-6.5s-1.5-4.6-2.5-6.5c-1-2.3-2-5.7-3-8l-1.5-3.8L268.3,285.1"/>
	</g>
	<g>
		<polygon fill="#C9154E" points="224.9,156.8 267.7,242.1 309.9,156.8 288.8,156.8 268.6,199.5 247.1,156.8 		"/>
		<polygon fill="#1A1C18" points="366.4,156.8 326.4,241.3 346.1,241.3 366.4,199.5 387.7,241 408.4,241.3 		"/>
		<polygon fill="#1A1C18" points="362.9,206.9 354.7,223.6 378.7,223.6 370.2,206.9 		"/>
		<g>
			<g>
				<g>
					<polygon fill="#1A1C18" points="116.4,156.8 116.2,177.6 132.9,177.6 132.8,172.9 197.2,172.9 197.2,156.8 					"/>
				</g>
			</g>
			<g>
				<g>
					<polygon fill="#1A1C18" points="116.2,208.1 116.2,192.2 197.2,191.7 197.2,208.1 					"/>
				</g>
			</g>
			<g>
				<g>
					<polygon fill="#1A1C18" points="116.4,241.3 116.2,220.5 132.9,220.5 132.8,225.2 197.2,225.2 197.2,241.3 					"/>
				</g>
			</g>
		</g>
	</g>
</g>
<g id="图层_3" display="none">
</g>
</svg>
