<svg id="svg" version="1.1" width="400" height="400" xmlns="http://www.w3.org/2000/svg"
     xmlns:xlink="http://www.w3.org/1999/xlink" style="display: block;">
  <g id="svgg">
    <path id="path0"
          d="M206.497 159.713 C 177.604 188.594,169.194 197.217,169.197 197.963 C 169.200 198.829,169.899 200.523,173.591 208.600 C 174.194 209.920,174.907 211.675,175.175 212.500 C 175.443 213.325,175.800 214.000,175.968 214.000 C 176.136 214.000,176.502 214.765,176.782 215.700 C 177.061 216.635,177.720 218.209,178.245 219.197 C 178.770 220.185,179.200 221.140,179.200 221.319 C 179.200 221.498,179.743 222.739,180.406 224.076 L 181.613 226.508 179.828 228.154 C 178.846 229.059,177.617 230.160,177.097 230.600 C 175.813 231.685,169.784 236.941,167.758 238.741 C 166.855 239.544,165.378 240.830,164.474 241.600 C 162.146 243.585,162.204 243.713,168.300 250.055 C 171.325 253.202,175.391 257.430,177.336 259.450 L 180.872 263.123 176.936 264.966 C 174.771 265.979,172.730 266.960,172.400 267.144 C 171.702 267.536,171.343 269.600,171.973 269.600 C 172.208 269.600,172.400 269.840,172.400 270.132 C 172.400 270.425,172.844 270.902,173.386 271.193 C 173.929 271.483,174.300 271.838,174.211 271.982 C 174.122 272.126,174.848 273.126,175.825 274.205 C 176.801 275.284,177.600 276.309,177.600 276.483 C 177.600 276.657,177.870 276.800,178.200 276.800 C 178.530 276.800,178.800 276.980,178.800 277.200 C 178.800 277.420,179.070 277.600,179.400 277.600 C 179.730 277.600,180.000 277.453,180.000 277.273 C 180.000 277.093,180.985 276.636,182.188 276.256 C 183.392 275.877,184.612 275.331,184.899 275.044 C 185.187 274.756,186.137 274.290,187.011 274.007 C 187.885 273.724,189.140 273.209,189.800 272.862 C 190.460 272.515,192.170 271.725,193.600 271.106 C 195.030 270.488,196.875 269.688,197.700 269.330 C 199.533 268.534,199.615 267.695,198.035 265.913 C 196.165 263.806,190.756 257.543,188.800 255.219 C 187.810 254.043,186.602 252.613,186.116 252.041 C 185.631 251.468,184.767 250.423,184.197 249.719 L 183.160 248.438 184.880 247.323 C 185.826 246.709,186.690 246.113,186.800 245.997 C 186.910 245.882,188.556 244.751,190.459 243.484 C 192.361 242.218,194.138 240.915,194.408 240.591 C 194.677 240.266,195.085 240.000,195.313 240.000 C 195.541 240.000,196.681 239.280,197.846 238.400 C 199.012 237.520,200.150 236.800,200.375 236.800 C 201.168 236.800,201.290 234.784,200.611 232.893 C 200.237 231.852,199.575 229.920,199.140 228.600 C 198.704 227.280,198.014 225.480,197.607 224.600 C 197.199 223.720,196.661 222.224,196.411 221.275 C 196.160 220.326,195.870 219.325,195.764 219.051 C 195.579 218.569,199.442 215.600,200.254 215.600 C 200.471 215.600,201.018 215.257,201.468 214.837 C 201.919 214.417,203.078 213.674,204.044 213.185 C 205.010 212.696,205.944 212.049,206.120 211.748 C 206.296 211.447,206.656 211.196,206.920 211.191 C 207.317 211.184,209.427 209.924,213.600 207.201 C 216.983 204.994,219.282 203.600,219.538 203.600 C 219.709 203.600,220.199 203.285,220.627 202.900 C 221.055 202.515,222.213 201.759,223.202 201.220 C 224.191 200.681,225.180 200.089,225.400 199.904 C 225.620 199.719,227.240 198.682,229.000 197.600 C 230.760 196.518,232.400 195.461,232.644 195.253 C 232.888 195.044,233.858 194.481,234.800 194.000 C 235.742 193.520,236.881 192.783,237.332 192.363 C 237.782 191.943,238.387 191.600,238.675 191.600 C 238.964 191.600,239.523 191.285,239.917 190.900 C 240.312 190.515,241.437 189.759,242.417 189.220 C 243.398 188.681,244.549 187.916,244.975 187.520 C 245.402 187.124,245.987 186.800,246.275 186.800 C 246.564 186.800,247.129 186.471,247.531 186.069 C 247.933 185.667,249.103 184.931,250.131 184.433 C 251.159 183.936,252.000 183.395,252.000 183.233 C 252.000 183.070,252.900 182.515,254.000 182.000 C 255.100 181.485,256.000 180.950,256.000 180.811 C 256.000 180.673,256.810 180.166,257.800 179.685 C 259.187 179.011,259.600 178.591,259.600 177.854 C 259.600 176.588,258.377 171.109,257.981 170.600 C 257.810 170.380,257.272 168.490,256.787 166.400 C 256.301 164.310,255.770 162.420,255.607 162.200 C 255.444 161.980,254.901 160.000,254.400 157.800 C 253.899 155.600,253.343 153.612,253.164 153.382 C 252.985 153.152,252.461 151.270,252.000 149.200 C 251.539 147.130,251.015 145.248,250.836 145.018 C 250.657 144.788,250.097 142.800,249.591 140.600 C 249.085 138.400,248.521 136.330,248.337 136.000 C 248.153 135.670,247.538 133.600,246.971 131.400 C 246.403 129.200,245.647 126.275,245.289 124.900 C 244.932 123.525,244.451 122.406,244.220 122.413 C 243.989 122.421,227.014 139.206,206.497 159.713 M246.062 138.000 C 246.953 141.190,248.028 145.060,248.451 146.600 C 250.952 155.697,251.677 158.308,253.009 163.000 C 254.742 169.108,256.383 175.071,256.643 176.200 C 256.795 176.861,255.936 177.552,251.714 180.167 C 243.545 185.226,235.227 190.400,232.200 192.305 C 230.660 193.275,223.640 197.644,216.600 202.014 C 209.560 206.384,203.260 210.309,202.600 210.738 C 201.940 211.166,199.870 212.457,198.000 213.606 C 191.749 217.448,191.873 216.834,195.393 226.604 C 196.819 230.562,197.989 234.013,197.993 234.273 C 198.000 234.756,194.770 237.157,187.027 242.425 C 181.661 246.075,180.400 247.238,180.400 248.539 C 180.400 249.568,180.756 250.066,185.193 255.238 C 189.715 260.509,194.997 266.860,195.087 267.135 C 195.158 267.351,183.112 272.960,180.728 273.821 C 180.084 274.054,178.642 272.741,176.367 269.849 L 175.563 268.827 179.195 267.003 C 185.518 263.827,185.543 263.906,174.649 252.556 L 166.298 243.854 168.080 242.227 C 169.060 241.332,172.952 237.900,176.728 234.600 C 180.504 231.300,183.748 228.150,183.936 227.600 C 184.383 226.290,184.209 225.800,179.594 215.400 C 177.446 210.560,174.854 204.715,173.835 202.410 L 171.981 198.220 207.484 162.716 L 242.987 127.212 243.715 129.706 C 244.115 131.078,245.171 134.810,246.062 138.000 "
          stroke="none" fill="#3b3b3b" fill-rule="evenodd"></path>
    <path id="path1" d="" stroke="none" fill="#0000ff" fill-rule="evenodd"></path>
    <path id="path2"
          d="M194.202 1.403 C 192.664 1.723,191.344 2.169,191.269 2.393 C 191.194 2.617,190.958 2.800,190.745 2.800 C 189.985 2.800,186.595 4.508,186.280 5.049 C 186.104 5.352,185.764 5.600,185.524 5.600 C 184.950 5.600,5.600 184.944,5.600 185.518 C 5.600 185.761,5.353 186.104,5.052 186.280 C 4.396 186.663,2.800 189.713,2.800 190.584 C 2.800 190.923,2.638 191.200,2.440 191.200 C 1.712 191.200,1.008 195.524,1.008 200.000 C 1.008 204.476,1.712 208.800,2.440 208.800 C 2.638 208.800,2.800 209.077,2.800 209.416 C 2.800 210.287,4.396 213.337,5.052 213.720 C 5.353 213.896,5.600 214.239,5.600 214.482 C 5.600 215.037,184.942 394.400,185.496 394.400 C 185.719 394.400,186.134 394.679,186.416 395.020 C 186.947 395.659,190.030 397.200,190.778 397.200 C 191.010 397.200,191.200 397.349,191.200 397.531 C 191.200 399.329,205.670 399.522,208.800 397.766 C 209.350 397.458,210.655 396.850,211.700 396.417 C 212.745 395.983,213.600 395.442,213.600 395.214 C 213.600 394.986,213.901 394.800,214.269 394.800 C 215.028 394.800,292.487 317.554,293.283 316.004 C 293.567 315.452,293.992 314.874,294.227 314.720 C 294.463 314.567,295.003 313.397,295.426 312.120 C 295.850 310.844,296.377 309.672,296.598 309.515 C 297.223 309.071,297.129 297.110,296.500 296.900 C 296.225 296.808,296.000 296.459,296.000 296.124 C 296.000 291.922,286.478 282.400,282.276 282.400 C 281.941 282.400,281.592 282.175,281.500 281.900 C 281.279 281.234,270.553 281.198,269.164 281.858 C 268.634 282.109,267.300 282.630,266.200 283.015 C 265.100 283.400,263.878 284.049,263.484 284.458 C 263.091 284.866,262.567 285.200,262.321 285.200 C 262.075 285.200,248.897 298.181,233.037 314.048 C 217.177 329.914,203.529 343.324,202.708 343.848 C 201.208 344.805,198.800 345.145,198.800 344.400 C 198.800 344.180,198.501 344.000,198.136 344.000 C 197.271 344.000,56.470 203.280,56.154 202.100 C 56.022 201.605,55.753 201.200,55.557 201.200 C 55.360 201.200,55.200 200.570,55.200 199.800 C 55.200 199.030,55.380 198.400,55.600 198.400 C 55.820 198.400,56.000 198.174,56.000 197.898 C 56.000 197.268,197.459 55.858,198.742 55.206 C 201.134 53.990,200.615 53.527,231.052 84.000 C 246.863 99.830,259.954 112.786,260.142 112.791 C 260.331 112.796,260.839 113.250,261.271 113.800 C 261.704 114.350,262.287 114.800,262.567 114.800 C 262.847 114.800,263.377 115.132,263.744 115.539 C 264.112 115.945,265.535 116.606,266.906 117.009 C 268.278 117.411,269.644 117.927,269.942 118.154 C 270.702 118.734,279.244 118.714,280.438 118.129 C 280.967 117.869,282.347 117.359,283.505 116.995 C 284.663 116.630,285.837 116.122,286.113 115.866 C 286.389 115.610,287.241 115.049,288.007 114.620 C 290.785 113.064,294.520 108.379,295.490 105.234 C 295.868 104.005,296.363 102.871,296.589 102.714 C 297.222 102.274,297.138 90.312,296.500 90.100 C 296.225 90.008,296.000 89.693,296.000 89.400 C 296.000 88.714,294.581 85.397,293.913 84.522 C 292.947 83.256,214.989 5.401,213.827 4.542 C 213.189 4.070,211.932 3.448,211.034 3.159 C 210.135 2.870,209.310 2.511,209.200 2.361 C 208.282 1.112,198.577 0.491,194.202 1.403 "
          stroke="none" fill="#0f77ff" fill-rule="evenodd"></path>
    <path id="path3"
          d="M319.200 122.746 C 319.200 122.936,318.345 123.207,317.300 123.349 C 315.088 123.650,311.600 124.742,311.600 125.135 C 311.600 125.283,311.103 125.625,310.495 125.894 C 309.888 126.163,308.583 127.101,307.595 127.980 C 306.608 128.858,305.686 129.582,305.547 129.589 C 305.407 129.595,305.188 129.915,305.058 130.300 C 304.778 131.133,304.030 132.287,303.196 133.169 C 302.863 133.521,302.331 134.617,302.012 135.604 C 301.694 136.592,301.287 137.503,301.107 137.629 C 299.765 138.574,299.777 150.629,301.121 151.579 C 301.293 151.701,301.694 152.607,302.011 153.593 C 303.042 156.789,304.842 158.785,324.460 178.485 C 346.860 200.978,344.933 198.864,344.933 200.954 C 344.933 202.592,344.843 202.690,325.346 222.200 C 304.151 243.410,301.600 246.442,301.600 250.417 C 301.600 250.811,301.375 251.208,301.100 251.300 C 300.480 251.507,300.390 261.478,301.004 261.917 C 301.222 262.073,301.833 263.505,302.363 265.100 C 302.892 266.695,303.446 268.000,303.595 268.000 C 303.743 268.000,304.118 268.495,304.427 269.100 C 304.905 270.036,307.341 272.575,309.631 274.525 C 310.444 275.217,313.711 276.800,314.326 276.800 C 314.587 276.800,314.800 276.964,314.800 277.164 C 314.800 278.485,326.850 278.751,329.601 277.491 C 330.371 277.138,331.691 276.571,332.535 276.231 C 335.004 275.235,336.132 274.179,356.495 253.809 C 367.166 243.134,375.997 234.400,376.119 234.400 C 377.599 234.400,395.975 214.300,396.811 211.767 C 397.059 211.015,397.414 210.400,397.599 210.400 C 399.533 210.400,399.583 191.928,397.651 191.284 C 397.403 191.201,397.200 190.935,397.200 190.693 C 397.200 190.020,395.569 186.800,395.229 186.800 C 395.063 186.800,394.731 186.366,394.489 185.836 C 394.031 184.831,386.044 176.400,385.550 176.400 C 385.395 176.400,374.138 165.282,360.534 151.692 C 332.820 124.008,331.875 123.231,325.900 123.205 C 325.295 123.202,324.800 123.020,324.800 122.800 C 324.800 122.571,323.600 122.400,322.000 122.400 C 320.460 122.400,319.200 122.556,319.200 122.746 "
          stroke="none" fill="#f7495b" fill-rule="evenodd"></path>
    <path id="path4"
          d="M207.497 162.710 L 172.017 198.200 177.621 210.800 C 184.141 225.462,184.517 226.450,184.031 227.693 C 183.836 228.192,179.806 232.013,175.074 236.183 L 166.472 243.767 168.136 245.655 C 169.051 246.694,172.905 250.784,176.700 254.745 C 185.343 263.765,185.428 264.244,178.912 267.240 L 175.529 268.796 176.728 270.298 C 177.387 271.124,178.458 272.305,179.109 272.923 L 180.292 274.047 187.733 270.723 C 191.825 268.895,195.134 267.279,195.086 267.132 C 195.039 266.984,192.719 264.194,189.932 260.932 C 177.736 246.658,177.791 248.752,189.400 240.739 C 193.800 237.702,197.556 234.979,197.747 234.689 C 197.971 234.348,197.208 231.763,195.588 227.381 C 191.571 216.510,191.028 217.810,202.581 210.646 C 206.878 207.981,213.860 203.644,218.097 201.010 C 222.334 198.375,232.370 192.141,240.400 187.156 C 248.430 182.170,255.402 177.756,255.894 177.346 L 256.788 176.600 254.975 170.200 C 253.978 166.680,252.521 161.460,251.736 158.600 C 250.952 155.740,249.895 151.960,249.387 150.200 C 248.879 148.440,247.821 144.660,247.036 141.800 C 246.251 138.940,245.017 134.490,244.293 131.910 L 242.978 127.221 207.497 162.710 "
          stroke="none" fill="#ffd200" fill-rule="evenodd"></path>
  </g>
</svg>
