<?xml version="1.0" encoding="utf-8"?>
<!-- Generator: Adobe Illustrator 18.0.0, SVG Export Plug-In . SVG Version: 6.00 Build 0)  -->
<!DOCTYPE svg PUBLIC "-//W3C//DTD SVG 1.1//EN" "http://www.w3.org/Graphics/SVG/1.1/DTD/svg11.dtd">
<svg version="1.1" xmlns="http://www.w3.org/2000/svg" xmlns:xlink="http://www.w3.org/1999/xlink" x="0px" y="0px"
	 viewBox="0 0 800 800" enable-background="new 0 0 800 800" xml:space="preserve">
<g id="图层_1">
	<g>
		<path fill="#D6AE3C" d="M249.8,536.5l-148.1-244c-1.6-2.6-1.5-5.9,0.1-8.5L214,110.7c1.5-2.3,4-3.6,6.7-3.6l278.9,0
			c2.7,0,5.2,1.4,6.7,3.7L618.2,284c1.7,2.6,1.7,5.9,0.1,8.5L470,536.2c-1.4,2.4-4,3.8-6.8,3.8l-206.5,0.4
			C253.9,540.4,251.3,538.9,249.8,536.5z"/>
		<linearGradient id="SVGID_1_" gradientUnits="userSpaceOnUse" x1="100.5635" y1="323.6842" x2="619.4373" y2="323.6842">
			<stop  offset="0" style="stop-color:#77B7E5"/>
			<stop  offset="0.1102" style="stop-color:#6CAFE1"/>
			<stop  offset="0.2934" style="stop-color:#4D9AD5"/>
			<stop  offset="0.5257" style="stop-color:#007BC2"/>
			<stop  offset="0.5674" style="stop-color:#0076BF"/>
			<stop  offset="1" style="stop-color:#004DA1"/>
		</linearGradient>
		<path fill="url(#SVGID_1_)" d="M249.8,536.5l-148.1-244c-1.6-2.6-1.5-5.9,0.1-8.5L214,110.7c1.5-2.3,4-3.6,6.7-3.6l278.9,0
			c2.7,0,5.2,1.4,6.7,3.7L618.2,284c1.7,2.6,1.7,5.9,0.1,8.5L470,536.2c-1.4,2.4-4,3.8-6.8,3.8l-206.5,0.4
			C253.9,540.4,251.3,538.9,249.8,536.5z"/>
	</g>
	<linearGradient id="SVGID_2_" gradientUnits="userSpaceOnUse" x1="161.8563" y1="324.7059" x2="559.467" y2="324.7059">
		<stop  offset="0" style="stop-color:#E60412"/>
		<stop  offset="0.5" style="stop-color:#E60412;stop-opacity:0"/>
		<stop  offset="1" style="stop-color:#E60412"/>
	</linearGradient>
	<path fill="#FFFFFF" stroke="url(#SVGID_2_)" stroke-width="3" stroke-miterlimit="10" d="M272.1,477.2L166.2,308.6
		c-3.9-6.2-3.8-14.2,0.3-20.3l78-116.5c3.5-5.2,9.3-8.3,15.5-8.3l201.6,0c6.2,0,12,3.1,15.5,8.3l77.8,116.5
		c4.1,6.1,4.2,14.1,0.3,20.3L449,477c-3.4,5.4-9.3,8.7-15.7,8.7L288,485.9C281.5,486,275.6,482.7,272.1,477.2z"/>
	<g>
		<path fill="#3B3B3B" d="M351.2,451c-6,6-7.8,7.8-7.8,8c0,0.2,0.1,0.5,0.9,2.2c0.1,0.3,0.3,0.6,0.3,0.8c0.1,0.2,0.1,0.3,0.2,0.3
			c0,0,0.1,0.2,0.2,0.4c0.1,0.2,0.2,0.5,0.3,0.7c0.1,0.2,0.2,0.4,0.2,0.4c0,0,0.1,0.3,0.3,0.6l0.3,0.5l-0.4,0.3
			c-0.2,0.2-0.5,0.4-0.6,0.5c-0.3,0.2-1.5,1.3-1.9,1.7c-0.2,0.2-0.5,0.4-0.7,0.6c-0.5,0.4-0.5,0.4,0.8,1.8c0.6,0.7,1.5,1.5,1.9,2
			l0.7,0.8l-0.8,0.4c-0.5,0.2-0.9,0.4-0.9,0.5c-0.1,0.1-0.2,0.5-0.1,0.5c0,0,0.1,0,0.1,0.1c0,0.1,0.1,0.2,0.2,0.2
			c0.1,0.1,0.2,0.1,0.2,0.2s0.1,0.2,0.3,0.5c0.2,0.2,0.4,0.4,0.4,0.5s0.1,0.1,0.1,0.1s0.1,0,0.1,0.1s0.1,0.1,0.1,0.1s0.1,0,0.1-0.1
			c0,0,0.2-0.1,0.5-0.2c0.3-0.1,0.5-0.2,0.6-0.3c0.1-0.1,0.3-0.2,0.4-0.2c0.2-0.1,0.4-0.2,0.6-0.2s0.5-0.2,0.8-0.4
			c0.3-0.1,0.7-0.3,0.9-0.4c0.4-0.2,0.4-0.3,0.1-0.7c-0.4-0.4-1.5-1.7-1.9-2.2c-0.2-0.2-0.5-0.5-0.6-0.7c-0.1-0.1-0.3-0.3-0.4-0.5
			l-0.2-0.3l0.4-0.2c0.2-0.1,0.4-0.3,0.4-0.3c0,0,0.4-0.3,0.8-0.5c0.4-0.3,0.8-0.5,0.8-0.6c0.1-0.1,0.1-0.1,0.2-0.1
			c0,0,0.3-0.1,0.5-0.3c0.2-0.2,0.5-0.3,0.5-0.3c0.2,0,0.2-0.4,0-0.8c-0.1-0.2-0.2-0.6-0.3-0.9c-0.1-0.3-0.2-0.6-0.3-0.8
			c-0.1-0.2-0.2-0.5-0.2-0.7c-0.1-0.2-0.1-0.4-0.1-0.5c0-0.1,0.8-0.7,0.9-0.7c0,0,0.2-0.1,0.3-0.2c0.1-0.1,0.3-0.2,0.5-0.3
			c0.2-0.1,0.4-0.2,0.4-0.3s0.1-0.1,0.2-0.1c0.1,0,0.5-0.3,1.4-0.8c0.7-0.5,1.2-0.7,1.2-0.7c0,0,0.1-0.1,0.2-0.1
			c0.1-0.1,0.3-0.2,0.5-0.3c0.2-0.1,0.4-0.2,0.5-0.3c0,0,0.4-0.3,0.7-0.5c0.4-0.2,0.7-0.4,0.8-0.5c0.1,0,0.3-0.2,0.4-0.3
			c0.2-0.1,0.4-0.3,0.5-0.3c0.1-0.1,0.2-0.2,0.3-0.2c0.1,0,0.2-0.1,0.3-0.1c0.1-0.1,0.3-0.2,0.5-0.3c0.2-0.1,0.4-0.3,0.5-0.4
			c0.1-0.1,0.2-0.1,0.3-0.1c0.1,0,0.2-0.1,0.3-0.2s0.3-0.2,0.5-0.3c0.2-0.1,0.4-0.2,0.4-0.2c0,0,0.2-0.1,0.4-0.3
			c0.2-0.1,0.4-0.2,0.4-0.2c0,0,0.2-0.1,0.4-0.2c0.3-0.1,0.4-0.2,0.4-0.4c0-0.3-0.3-1.4-0.3-1.5c0,0-0.1-0.4-0.2-0.9
			c-0.1-0.4-0.2-0.8-0.2-0.9s-0.1-0.5-0.3-0.9c-0.1-0.5-0.2-0.9-0.3-0.9c0,0-0.1-0.4-0.2-0.9s-0.2-0.8-0.2-0.9c0,0-0.2-0.5-0.3-0.9
			c-0.1-0.5-0.2-0.9-0.3-1c0-0.1-0.2-0.5-0.3-1c-0.1-0.5-0.3-1.1-0.3-1.4c-0.1-0.3-0.2-0.5-0.2-0.5C359,443.3,355.5,446.8,351.2,451
			"/>
		<path fill="#3B3B3B" d="M359.4,446.5c0.2,0.7,0.4,1.5,0.5,1.8c0.5,1.9,0.7,2.4,0.9,3.4c0.4,1.3,0.7,2.5,0.8,2.7
			c0,0.1-0.1,0.3-1,0.8c-1.7,1.1-3.4,2.1-4.1,2.5c-0.3,0.2-1.8,1.1-3.2,2c-1.5,0.9-2.8,1.7-2.9,1.8c-0.1,0.1-0.6,0.4-1,0.6
			c-1.3,0.8-1.3,0.7-0.5,2.7c0.3,0.8,0.5,1.5,0.5,1.6c0,0.1-0.7,0.6-2.3,1.7c-1.1,0.8-1.4,1-1.4,1.3c0,0.2,0.1,0.3,1,1.4
			c0.9,1.1,2,2.4,2.1,2.5c0,0-2.5,1.2-3,1.4c-0.1,0-0.4-0.2-0.9-0.8l-0.2-0.2l0.8-0.4c1.3-0.7,1.3-0.6-0.9-3l-1.7-1.8l0.4-0.3
			c0.2-0.2,1-0.9,1.8-1.6c0.8-0.7,1.5-1.3,1.5-1.5c0.1-0.3,0.1-0.4-0.9-2.5c-0.4-1-1-2.2-1.2-2.7l-0.4-0.9l7.4-7.4l7.4-7.4l0.2,0.5
			C359,445.1,359.3,445.9,359.4,446.5"/>
		<path id="path4" fill="#F5CB1F" d="M351.4,451.7l-7.4,7.4l1.2,2.6c1.4,3.1,1.4,3.3,1.3,3.5c0,0.1-0.9,0.9-1.9,1.8l-1.8,1.6
			l0.3,0.4c0.2,0.2,1,1.1,1.8,1.9c1.8,1.9,1.8,2,0.5,2.6l-0.7,0.3l0.2,0.3c0.1,0.2,0.4,0.4,0.5,0.5l0.2,0.2l1.5-0.7
			c0.9-0.4,1.5-0.7,1.5-0.7c0,0-0.5-0.6-1.1-1.3c-2.5-3-2.5-2.5-0.1-4.2c0.9-0.6,1.7-1.2,1.7-1.3c0-0.1-0.1-0.6-0.4-1.5
			c-0.8-2.3-0.9-2,1.5-3.5c0.9-0.6,2.3-1.5,3.2-2c0.9-0.5,3-1.8,4.6-2.9c1.7-1,3.1-2,3.2-2l0.2-0.2l-0.4-1.3
			c-0.2-0.7-0.5-1.8-0.7-2.4c-0.2-0.6-0.4-1.4-0.5-1.7s-0.3-1.2-0.5-1.7c-0.2-0.6-0.4-1.5-0.6-2.1l-0.3-1L351.4,451.7"/>
	</g>
	<g>
		<polygon fill="#D70051" points="332.9,254 370.2,328.3 406.9,254 388.5,254 370.9,291.2 352.2,254 		"/>
		<polygon fill="#1A1C18" points="478.8,254 443.9,327.6 461.1,327.6 478.8,291.2 497.3,327.3 515.4,327.6 		"/>
		<polygon fill="#1A1C18" points="475.7,297.6 468.6,312.2 489.5,312.2 482.1,297.6 		"/>
		<g>
			<g>
				<g>
					<polygon fill-rule="evenodd" clip-rule="evenodd" fill="#1A1C18" points="225.3,254 225.1,272.1 239.7,272.1 239.6,268 
						295.7,268 295.7,254 					"/>
				</g>
			</g>
			<g>
				<g>
					<polygon fill-rule="evenodd" clip-rule="evenodd" fill="#00A0E9" points="225.1,298.7 225.1,284.8 295.7,284.4 295.7,298.7 
											"/>
				</g>
				<g>
					<polygon fill="#1A1C18" points="225.1,298.7 225.1,284.8 295.7,284.4 295.7,298.7 					"/>
				</g>
			</g>
			<g>
				<g>
					<polygon fill-rule="evenodd" clip-rule="evenodd" fill="#1A1C18" points="225.3,327.6 225.1,309.5 239.7,309.5 239.6,313.6 
						295.7,313.6 295.7,327.6 					"/>
				</g>
			</g>
		</g>
	</g>
</g>
<g id="图层_2">
</g>
<g id="图层_3">
</g>
</svg>
